<?xml version="1.0" encoding="UTF-8"?>
<!DOCTYPE svg PUBLIC "-//W3C//DTD SVG 1.1//EN" "http://www.w3.org/Graphics/SVG/1.1/DTD/svg11.dtd">
<!-- Creator: CorelDRAW X8 -->
<svg xmlns="http://www.w3.org/2000/svg" xml:space="preserve" width="137.969mm" height="137.954mm" version="1.1" style="shape-rendering:geometricPrecision; text-rendering:geometricPrecision; image-rendering:optimizeQuality; fill-rule:evenodd; clip-rule:evenodd"
viewBox="0 0 13103 13101"
 xmlns:xlink="http://www.w3.org/1999/xlink">
 <defs>
  <style type="text/css">
   <![CDATA[
    .str0 {stroke:#4D50FB;stroke-width:7.23666}
    .fil50 {fill:#191414;fill-rule:nonzero}
    .fil47 {fill:#2D4792;fill-rule:nonzero}
    .fil46 {fill:#2F4A97;fill-rule:nonzero}
    .fil51 {fill:#312D2D;fill-rule:nonzero}
    .fil45 {fill:#334E9A;fill-rule:nonzero}
    .fil44 {fill:#37509F;fill-rule:nonzero}
    .fil43 {fill:#3A52A3;fill-rule:nonzero}
    .fil49 {fill:#3D3838;fill-rule:nonzero}
    .fil42 {fill:#3D56A6;fill-rule:nonzero}
    .fil41 {fill:#4059AA;fill-rule:nonzero}
    .fil40 {fill:#435BAE;fill-rule:nonzero}
    .fil62 {fill:#435CD9;fill-rule:nonzero}
    .fil53 {fill:#443E3E;fill-rule:nonzero}
    .fil39 {fill:#455EB1;fill-rule:nonzero}
    .fil38 {fill:#4960B5;fill-rule:nonzero}
    .fil37 {fill:#4B64B8;fill-rule:nonzero}
    .fil66 {fill:#4C6EC9;fill-rule:nonzero}
    .fil36 {fill:#4E66BB;fill-rule:nonzero}
    .fil35 {fill:#5169BF;fill-rule:nonzero}
    .fil75 {fill:#539933;fill-rule:nonzero}
    .fil34 {fill:#546BC3;fill-rule:nonzero}
    .fil33 {fill:#566DC5;fill-rule:nonzero}
    .fil32 {fill:#596FC8;fill-rule:nonzero}
    .fil31 {fill:#5B73CB;fill-rule:nonzero}
    .fil30 {fill:#5E75CE;fill-rule:nonzero}
    .fil29 {fill:#6076D1;fill-rule:nonzero}
    .fil63 {fill:#607ED9;fill-rule:nonzero}
    .fil28 {fill:#6179D4;fill-rule:nonzero}
    .fil27 {fill:#647AD7;fill-rule:nonzero}
    .fil26 {fill:#657CD9;fill-rule:nonzero}
    .fil65 {fill:#6580D7;fill-rule:nonzero}
    .fil67 {fill:#6681E2;fill-rule:nonzero}
    .fil25 {fill:#687EDC;fill-rule:nonzero}
    .fil24 {fill:#6980DE;fill-rule:nonzero}
    .fil23 {fill:#6C82E1;fill-rule:nonzero}
    .fil22 {fill:#6E83E3;fill-rule:nonzero}
    .fil21 {fill:#6F85E4;fill-rule:nonzero}
    .fil20 {fill:#7187E7;fill-rule:nonzero}
    .fil64 {fill:#718DD9;fill-rule:nonzero}
    .fil19 {fill:#7288E8;fill-rule:nonzero}
    .fil18 {fill:#7489EB;fill-rule:nonzero}
    .fil17 {fill:#758BED;fill-rule:nonzero}
    .fil16 {fill:#778CEE;fill-rule:nonzero}
    .fil15 {fill:#788EF0;fill-rule:nonzero}
    .fil14 {fill:#7A8FF1;fill-rule:nonzero}
    .fil13 {fill:#7A90F3;fill-rule:nonzero}
    .fil12 {fill:#7B91F4;fill-rule:nonzero}
    .fil11 {fill:#7D92F5;fill-rule:nonzero}
    .fil10 {fill:#7D92F7;fill-rule:nonzero}
    .fil9 {fill:#7E93F8;fill-rule:nonzero}
    .fil8 {fill:#7F94F9;fill-rule:nonzero}
    .fil7 {fill:#8095FA;fill-rule:nonzero}
    .fil6 {fill:#8196FB;fill-rule:nonzero}
    .fil4 {fill:#8196FC;fill-rule:nonzero}
    .fil5 {fill:#8297FC;fill-rule:nonzero}
    .fil3 {fill:#8297FD;fill-rule:nonzero}
    .fil2 {fill:#8298FD;fill-rule:nonzero}
    .fil1 {fill:#8398FE;fill-rule:nonzero}
    .fil0 {fill:#8499FF;fill-rule:nonzero}
    .fil55 {fill:#97A3EB;fill-rule:nonzero}
    .fil73 {fill:#AFAA9C;fill-rule:nonzero}
    .fil74 {fill:#B4B4B4;fill-rule:nonzero}
    .fil58 {fill:#BDCDFD;fill-rule:nonzero}
    .fil54 {fill:#BDD0FF;fill-rule:nonzero}
    .fil59 {fill:#C2D1FD;fill-rule:nonzero}
    .fil57 {fill:#C7D4FD;fill-rule:nonzero}
    .fil60 {fill:#C7D5FD;fill-rule:nonzero}
    .fil71 {fill:#C9C5BA;fill-rule:nonzero}
    .fil69 {fill:#CECABE;fill-rule:nonzero}
    .fil61 {fill:#D0DCFD;fill-rule:nonzero}
    .fil56 {fill:#DCE9FF;fill-rule:nonzero}
    .fil72 {fill:#DFDAD0;fill-rule:nonzero}
    .fil70 {fill:#E9E5DE;fill-rule:nonzero}
    .fil68 {fill:#FFFCF8;fill-rule:nonzero}
    .fil76 {fill:white;fill-rule:nonzero}
    .fil48 {fill:url(#id3)}
    .fil52 {fill:url(#id4)}
   ]]>
  </style>
   <clipPath id="id0">
    <rect x="3620" y="4887" width="2549" height="2549"/>
   </clipPath>
   <clipPath id="id1">
    <path d="M3620 7436l2550 0 0 -2549 -2550 0 0 2549z"/>
   </clipPath>
   <clipPath id="id2">
    <rect x="3620" y="4887" width="2549" height="2549"/>
   </clipPath>
  <linearGradient id="id3" gradientUnits="userSpaceOnUse" x1="11863.9" y1="8733.46" x2="1639.76" y2="8733.46">
   <stop offset="0" style="stop-opacity:1; stop-color:#322E2E"/>
   <stop offset="1" style="stop-opacity:1; stop-color:#242121"/>
  </linearGradient>
  <linearGradient id="id4" gradientUnits="userSpaceOnUse" x1="11863.5" y1="8733.46" x2="1639.75" y2="8733.46">
   <stop offset="0" style="stop-opacity:1; stop-color:#3F3939"/>
   <stop offset="1" style="stop-opacity:1; stop-color:#383333"/>
  </linearGradient>
 </defs>
 <g id="Layer_x0020_1">
  <metadata id="CorelCorpID_0Corel-Layer"/>
  <path class="fil0 str0" d="M13099 6550c0,3616 -2931,6548 -6548,6548 -3616,0 -6547,-2932 -6547,-6548 0,-3579 2871,-6487 6437,-6546l221 0c3565,59 6437,2967 6437,6546z"/>
  <path class="fil0" d="M5200 11908c-229,0 -459,-51 -634,-152l-3440 -1987c-351,-202 -353,-531 -5,-733l519 -299c0,2 1,5 1,7l-498 287c-348,202 -345,529 4,731l3422 1976c174,101 403,152 632,152 228,0 456,-51 629,-152l422 -243c-1,6 -1,13 -1,19l-419 242c-175,102 -403,152 -632,152zm4300 -2268c-6,0 -12,0 -18,0 -5,0 -9,0 -14,0l2889 -1666c347,-202 345,-529 -4,-731l-490 -283 0 -13 515 298c351,202 353,531 4,733l-2882 1662z"/>
  <path class="fil0" d="M5201 11890c-229,0 -458,-51 -632,-152l-3422 -1976c-349,-202 -352,-529 -4,-731l498 -287c0,3 0,5 0,7l-477 276c-346,201 -344,527 4,728l3404 1965c174,101 402,151 629,151 228,0 455,-50 628,-150l429 -248c-3,7 -5,15 -6,22l-422 243c-173,101 -401,152 -629,152zm4231 -2247l2899 -1673c346,-201 344,-527 -4,-728l-465 -268c1,-4 1,-8 1,-11l0 -3 490 283c349,202 351,529 4,731l-2889 1666c-12,1 -24,1 -36,3z"/>
  <path class="fil0" d="M5201 11871c-227,0 -455,-50 -629,-151l-3404 -1965c-348,-201 -350,-527 -4,-728l477 -276c1,3 1,5 1,8l-456 263c-345,200 -343,525 4,726l3384 1955c174,100 401,150 628,150 227,0 453,-50 625,-150l444 -256c-6,9 -10,17 -13,26l-429 248c-173,100 -400,150 -628,150zm4188 -2223l2916 -1682c345,-200 343,-525 -4,-725l-439 -254c0,-5 0,-9 0,-13l465 268c348,201 350,527 4,728l-2899 1673c-15,1 -29,3 -43,5z"/>
  <path class="fil0" d="M5202 11853c-227,0 -454,-50 -628,-150l-3384 -1955c-347,-201 -349,-526 -4,-726l456 -263c1,2 1,4 1,7l-436 251c-344,200 -341,524 4,724l3366 1944c173,100 400,150 626,150 226,0 451,-50 623,-150l480 -277c-15,13 -27,26 -35,39l-444 256c-172,100 -398,150 -625,150zm4130 -2190l2948 -1700c343,-200 341,-524 -4,-724l-416 -240c1,-4 1,-8 2,-12l439 254c347,200 349,525 4,725l-2916 1682c-20,4 -39,9 -57,15z"/>
  <path class="fil1" d="M5203 11835c-226,0 -453,-50 -626,-150l-3366 -1944c-345,-200 -348,-524 -4,-724l436 -251c1,2 1,5 2,7l-416 240c-343,199 -341,522 4,721l3347 1933c173,100 398,149 624,149 225,0 449,-49 620,-149l6430 -3708c342,-199 341,-522 -4,-721l-392 -226c1,-4 2,-9 2,-13l416 240c345,200 347,524 4,724l-2948 1700c-24,8 -47,18 -67,29l-2924 1692c-13,8 -25,16 -35,24l-480 277c-172,100 -397,150 -623,150z"/>
  <path class="fil1" d="M5204 11816c-226,0 -451,-49 -624,-149l-3347 -1933c-345,-199 -347,-522 -4,-721l416 -240c0,2 1,5 1,7l-396 228c-341,199 -339,520 4,718l3329 1923c172,99 397,149 621,149 225,0 448,-49 619,-149l6405 -3694c341,-198 340,-520 -4,-718l-368 -213c1,-4 1,-8 2,-12l392 226c345,199 346,522 4,721l-6430 3708c-171,100 -395,149 -620,149z"/>
  <path class="fil2" d="M5204 11798c-224,0 -449,-50 -621,-149l-3329 -1923c-343,-198 -345,-519 -4,-718l396 -228c1,2 1,4 2,7l-376 217c-341,197 -338,518 4,715l3310 1912c171,99 395,149 619,149 223,0 447,-50 617,-148l6381 -3681c340,-197 338,-518 -4,-716l-346 -199c1,-4 2,-8 3,-12l368 213c344,198 345,520 4,718l-6405 3694c-171,100 -394,149 -619,149z"/>
  <path class="fil3" d="M5205 11780c-224,0 -448,-50 -619,-149l-3310 -1912c-342,-197 -345,-518 -4,-715l376 -217c0,2 1,4 1,6l-356 206c-339,197 -337,516 4,713l3292 1902c171,98 394,147 617,147 222,0 445,-49 614,-147l6357 -3667c339,-197 337,-516 -4,-713l-324 -187c2,-4 3,-7 4,-11l346 199c342,198 344,519 4,716l-6381 3681c-170,98 -394,148 -617,148z"/>
  <path class="fil4" d="M5206 11761c-223,0 -446,-49 -617,-147l-3292 -1902c-341,-197 -343,-516 -4,-713l356 -206c1,3 2,5 2,7l-336 194c-338,197 -336,515 3,711l3274 1891c170,98 392,147 615,147 221,0 443,-49 612,-147l6332 -3653c338,-196 336,-514 -4,-710l-301 -174c1,-4 2,-8 3,-12l324 187c341,197 343,516 4,713l-6357 3667c-169,98 -392,147 -614,147z"/>
  <path class="fil5" d="M5207 11743c-223,0 -445,-49 -615,-147l-3274 -1891c-339,-196 -341,-514 -3,-711l336 -194c1,2 2,5 2,7l-317 183c-337,195 -335,512 4,708l3255 1880c169,98 391,147 612,147 221,0 442,-49 610,-147l6309 -3638c336,-196 334,-513 -4,-708l-281 -162c2,-4 3,-8 5,-11l301 174c340,196 342,514 4,710l-6332 3653c-169,98 -391,147 -612,147z"/>
  <path class="fil6" d="M5207 11725c-221,0 -443,-49 -612,-147l-3255 -1880c-339,-196 -341,-513 -4,-708l317 -183c1,2 2,4 2,6l-298 172c-335,195 -333,511 4,706l3237 1869c169,98 390,146 610,146 220,0 440,-48 608,-146l6284 -3624c335,-195 333,-511 -4,-706l-259 -149c1,-4 3,-8 4,-11l281 162c338,195 340,512 4,708l-6309 3638c-168,98 -389,147 -610,147z"/>
  <path class="fil7" d="M5208 11706c-220,0 -441,-48 -610,-146l-3237 -1869c-337,-195 -339,-511 -4,-706l298 -172c1,3 2,5 3,7l-279 161c-334,194 -332,509 4,703l3218 1858c168,97 388,146 608,146 219,0 438,-48 605,-145l6260 -3611c334,-194 332,-509 -4,-703l-238 -138c2,-3 3,-7 5,-10l259 149c337,195 339,511 4,706l-6284 3624c-168,98 -388,146 -608,146z"/>
  <path class="fil8" d="M5209 11688c-220,0 -440,-49 -608,-146l-3218 -1858c-336,-194 -338,-509 -4,-703l279 -161c0,2 1,4 2,6l-260 150c-333,194 -331,507 4,700l3200 1849c167,96 387,145 606,145 218,0 437,-49 603,-145l6236 -3597c332,-193 331,-507 -4,-700l-218 -126c1,-4 3,-7 5,-11l238 138c336,194 338,509 4,703l-6260 3611c-167,97 -386,145 -605,145z"/>
  <path class="fil9" d="M5210 11670c-219,0 -439,-49 -606,-145l-3200 -1849c-335,-193 -337,-506 -4,-700l260 -150c1,2 2,4 3,7l-241 138c-332,193 -330,506 4,698l3181 1838c167,96 385,144 603,144 218,0 436,-48 602,-144l6211 -3583c331,-192 330,-505 -4,-698l-198 -114c2,-3 4,-7 6,-10l218 126c335,193 336,507 4,700l-6236 3597c-166,96 -385,145 -603,145z"/>
  <path class="fil10" d="M5210 11651c-218,0 -436,-48 -603,-144l-3181 -1838c-334,-192 -336,-505 -4,-698l241 -138c1,2 1,4 2,6l-222 128c-330,192 -328,503 4,695l3163 1827c166,96 384,144 601,144 217,0 434,-48 599,-144l6187 -3569c331,-191 329,-503 -4,-695l-178 -103c2,-3 4,-7 6,-10l198 114c334,193 335,506 4,698l-6211 3583c-166,96 -384,144 -602,144z"/>
  <path class="fil11" d="M5211 11633c-217,0 -435,-48 -601,-144l-3163 -1827c-332,-192 -334,-503 -4,-695l222 -128c1,2 2,4 3,6l-203 117c-330,192 -328,502 3,693l3145 1816c165,96 382,144 599,144 216,0 432,-48 597,-144l6163 -3554c329,-192 327,-502 -4,-693l-159 -92c2,-3 4,-7 6,-10l178 103c333,192 335,504 4,695l-6187 3569c-165,96 -382,144 -599,144z"/>
  <path class="fil12" d="M5212 11615c-217,0 -434,-48 -599,-144l-3145 -1816c-331,-191 -333,-501 -3,-693l203 -117c1,2 2,4 3,6l-185 107c-328,190 -326,499 4,690l3126 1805c165,96 381,143 597,143 215,0 430,-47 594,-143l6139 -3540c328,-191 326,-500 -4,-690l-140 -81c2,-4 4,-7 7,-10l159 92c331,191 333,501 4,693l-6163 3554c-165,96 -381,144 -597,144z"/>
  <path class="fil13" d="M5213 11596c-216,0 -432,-47 -597,-143l-3126 -1805c-330,-191 -332,-500 -4,-690l185 -107c1,2 2,4 3,6l-166 96c-327,190 -325,498 3,688l3108 1794c164,95 379,143 594,143 215,0 429,-47 593,-142l6114 -3527c327,-190 325,-498 -3,-688l-122 -70c2,-3 5,-6 7,-9l140 81c330,190 332,499 4,690l-6139 3540c-164,96 -379,143 -594,143z"/>
  <path class="fil14" d="M5213 11578c-215,0 -430,-48 -594,-143l-3108 -1794c-328,-190 -330,-498 -3,-688l166 -96c1,2 2,4 3,6l-148 85c-326,190 -324,496 4,686l3089 1784c163,94 378,142 592,142 214,0 428,-48 590,-142l6091 -3513c325,-189 323,-496 -4,-685l-103 -60c2,-3 5,-6 7,-9l122 70c328,190 330,498 3,688l-6114 3527c-164,95 -378,142 -593,142z"/>
  <path class="fil15" d="M5214 11560c-214,0 -429,-48 -592,-142l-3089 -1784c-328,-190 -330,-496 -4,-686l148 -85c1,2 2,4 4,6l-131 75c-324,188 -322,494 4,682l3071 1774c163,94 376,141 590,141 213,0 426,-47 588,-141l6066 -3499c324,-188 322,-494 -4,-682l-85 -49c3,-3 5,-7 8,-10l103 60c327,189 329,496 4,685l-6091 3513c-162,94 -376,142 -590,142z"/>
  <path class="fil16" d="M5215 11541c-214,0 -427,-47 -590,-141l-3071 -1774c-326,-188 -328,-494 -4,-682l131 -75c1,2 2,4 3,6l-112 64c-324,188 -321,493 4,680l3052 1763c162,94 375,141 588,141 212,0 424,-47 585,-141l6042 -3485c323,-187 322,-492 -3,-680l-68 -38c3,-3 6,-6 8,-9l85 49c326,188 328,494 4,682l-6066 3499c-162,94 -375,141 -588,141z"/>
  <path class="fil17" d="M5216 11523c-213,0 -426,-47 -588,-141l-3052 -1763c-325,-187 -328,-492 -4,-680l112 -64c1,2 2,4 3,5l-94 55c-322,187 -320,490 4,677l3033 1752c162,94 375,141 586,141 212,0 423,-47 584,-141l6018 -3470c321,-187 320,-491 -4,-678l-50 -29c3,-2 6,-5 8,-8l68 38c325,188 326,493 3,680l-6042 3485c-161,94 -373,141 -585,141z"/>
  <path class="fil18" d="M5216 11505c-211,0 -424,-47 -586,-141l-3033 -1752c-324,-187 -326,-490 -4,-677l94 -55c1,2 3,4 4,6l-76 44c-321,187 -319,489 4,675l3014 1741c162,94 373,140 584,140 211,0 421,-46 582,-139l5993 -3457c320,-187 319,-489 -4,-675l-32 -19c3,-3 6,-6 8,-9l50 29c324,187 325,491 4,678l-6018 3470c-161,94 -372,141 -584,141z"/>
  <path class="fil19" d="M5217 11486c-211,0 -422,-46 -584,-140l-3014 -1741c-323,-186 -325,-488 -4,-675l76 -44c1,2 2,4 4,6l-59 34c-320,185 -317,486 4,672l2996 1731c161,92 372,139 582,139 210,0 419,-46 579,-139l5969 -3443c320,-186 318,-487 -3,-673l-16 -8c3,-3 6,-6 9,-9l32 19c323,186 324,488 4,675l-5993 3457c-161,93 -371,139 -582,139z"/>
  <path class="fil20" d="M5218 11468c-210,0 -421,-47 -582,-139l-2996 -1731c-321,-186 -324,-487 -4,-672l59 -34c1,2 2,4 3,5l-40 24c-319,185 -317,485 3,670l2978 1720c161,92 370,139 580,139 209,0 418,-47 577,-139l5945 -3429c317,-184 316,-484 -2,-669 3,-3 5,-5 8,-8l16 8c321,186 323,487 3,673l-5969 3443c-160,93 -369,139 -579,139z"/>
  <path class="fil21" d="M5219 11450c-210,0 -419,-47 -580,-139l-2978 -1720c-320,-185 -322,-485 -3,-670l40 -24c2,2 3,4 4,6l-23 13c-317,185 -315,483 4,668l2959 1709c160,92 369,138 577,138 209,0 417,-46 575,-138l5921 -3415c311,-180 315,-472 14,-656 3,-3 6,-6 10,-9 318,185 319,485 2,669l-5945 3429c-159,92 -368,139 -577,139z"/>
  <path class="fil22" d="M5219 11431c-208,0 -417,-46 -577,-138l-2959 -1709c-319,-185 -321,-483 -4,-668l23 -13c2,2 3,4 4,5l-5 4c-317,183 -315,481 3,664l2941 1699c159,92 367,138 575,138 208,0 415,-46 573,-138l5896 -3401c304,-176 314,-459 30,-644 4,-3 7,-6 10,-8 301,184 297,476 -14,656l-5921 3415c-158,92 -366,138 -575,138z"/>
  <path class="fil23" d="M5220 11413c-208,0 -416,-46 -575,-138l-2941 -1699c-318,-183 -320,-481 -3,-664l5 -4c2,2 3,4 4,6 -303,183 -297,475 16,655l2922 1688c159,92 366,138 573,138 207,0 413,-46 570,-137l5873 -3387c297,-173 312,-448 45,-632 3,-3 7,-6 10,-9 284,185 274,468 -30,644l-5896 3401c-158,92 -365,138 -573,138z"/>
  <path class="fil24" d="M5221 11395c-207,0 -414,-46 -573,-138l-2922 -1688c-313,-180 -319,-472 -16,-655 2,2 3,4 5,6 -285,183 -273,466 32,642l2904 1677c158,92 364,137 571,137 206,0 411,-45 568,-136l5848 -3373c291,-169 310,-436 59,-619 4,-3 8,-6 12,-9 267,184 252,459 -45,632l-5873 3387c-157,91 -363,137 -570,137z"/>
  <path class="fil25" d="M5222 11376c-207,0 -413,-45 -571,-137l-2904 -1677c-305,-176 -317,-459 -32,-642 2,2 3,4 5,6 -267,183 -250,457 49,629l2885 1667c157,90 363,136 568,136 205,0 410,-45 566,-136l5824 -3359c284,-165 308,-424 73,-606 4,-3 8,-6 12,-9 251,183 232,450 -59,619l-5848 3373c-157,91 -362,136 -568,136z"/>
  <path class="fil26" d="M5222 11358c-205,0 -411,-46 -568,-136l-2885 -1667c-299,-172 -316,-446 -49,-629 2,2 4,5 6,7 -249,182 -227,447 64,615l2867 1656c157,90 361,136 566,136 204,0 409,-46 564,-136l5799 -3345c278,-161 307,-413 86,-593 5,-3 9,-6 13,-9 235,182 211,441 -73,606l-5824 3359c-156,91 -361,136 -566,136z"/>
  <path class="fil27" d="M5223 11340c-205,0 -409,-46 -566,-136l-2867 -1656c-291,-168 -313,-433 -64,-615 2,2 4,4 6,7 -231,180 -204,437 79,601l2849 1645c156,90 360,135 564,135 203,0 407,-45 562,-135l5775 -3331c271,-157 304,-401 98,-580 4,-3 9,-6 13,-9 221,180 192,432 -86,593l-5799 3345c-155,90 -360,136 -564,136z"/>
  <path class="fil28" d="M5224 11321c-204,0 -408,-45 -564,-135l-2849 -1645c-283,-164 -310,-421 -79,-601 2,2 4,5 7,7 -214,179 -182,427 94,587l2830 1634c155,90 358,135 562,135 202,0 405,-45 559,-134l5751 -3318c265,-154 301,-390 110,-567 4,-3 9,-6 14,-9 206,179 173,423 -98,580l-5775 3331c-155,90 -359,135 -562,135z"/>
  <path class="fil29" d="M5225 11303c-204,0 -407,-45 -562,-135l-2830 -1634c-276,-160 -308,-408 -94,-587 2,3 4,5 7,8 -197,177 -161,416 108,572l2812 1623c155,90 357,135 559,135 202,0 404,-45 558,-134l5726 -3303c259,-151 299,-380 121,-555 5,-3 10,-6 15,-9 191,177 155,413 -110,567l-5751 3318c-154,89 -357,134 -559,134z"/>
  <path class="fil30" d="M5225 11285c-202,0 -404,-45 -559,-135l-2812 -1623c-269,-156 -305,-395 -108,-572 3,2 5,5 8,8 -181,175 -140,405 122,556l2793 1614c154,89 356,133 557,133 201,0 402,-44 555,-133l5703 -3289c252,-147 295,-369 130,-542l11 -6c2,-1 3,-2 5,-3 178,175 138,404 -121,555l-5726 3303c-154,89 -356,134 -558,134z"/>
  <path class="fil31" d="M5226 11266c-201,0 -403,-44 -557,-133l-2793 -1614c-262,-151 -303,-381 -122,-556 3,3 6,5 9,8 -165,173 -120,395 134,541l2775 1603c153,88 354,133 555,133 200,0 400,-44 553,-133l5678 -3275c246,-143 293,-358 140,-529l16 -9c165,173 122,395 -130,542l-5703 3289c-153,89 -354,133 -555,133z"/>
  <path class="fil32" d="M5227 11248c-201,0 -402,-45 -555,-133l-2775 -1603c-254,-146 -299,-368 -134,-541 3,3 6,6 9,9 -149,170 -100,383 147,525l2756 1592c153,88 353,133 553,133 199,0 399,-45 550,-133l5654 -3261c240,-139 290,-347 150,-515l16 -10c153,171 106,386 -140,529l-5678 3275c-153,89 -353,133 -553,133z"/>
  <path class="fil33" d="M5228 11230c-200,0 -400,-45 -553,-133l-2756 -1592c-247,-142 -296,-355 -147,-525 4,3 7,6 10,9 -133,167 -80,371 158,509l2738 1581c152,88 351,132 550,132 199,0 398,-44 549,-132l5630 -3247c233,-135 286,-336 158,-501l17 -10c140,168 90,376 -150,515l-5654 3261c-151,88 -351,133 -550,133z"/>
  <path class="fil34" d="M5228 11211c-199,0 -398,-44 -550,-132l-2738 -1581c-238,-138 -291,-342 -158,-509 4,3 8,6 12,9 -120,163 -63,360 167,493l2719 1570c152,88 351,132 549,132 198,0 396,-44 547,-131l5605 -3234c227,-131 282,-325 166,-487l18 -10c128,165 75,366 -158,501l-5630 3247c-151,88 -350,132 -549,132z"/>
  <path class="fil35" d="M5229 11193c-198,0 -397,-44 -549,-132l-2719 -1570c-230,-133 -287,-330 -167,-493 4,3 8,6 12,9 -106,160 -46,348 177,477l2700 1560c152,87 349,131 547,131 197,0 394,-44 544,-131l5581 -3219c221,-128 278,-315 174,-474l18 -10c116,162 61,356 -166,487l-5605 3234c-151,87 -349,131 -547,131z"/>
  <path class="fil36" d="M5230 11175c-198,0 -395,-44 -547,-131l-2700 -1560c-223,-129 -283,-317 -177,-477 4,4 8,7 13,10 -92,156 -30,335 185,460l2682 1549c151,87 348,130 545,130 196,0 392,-43 542,-130l5557 -3205c213,-124 273,-304 181,-459l18 -11c104,159 47,346 -174,474l-5581 3219c-150,87 -347,131 -544,131z"/>
  <path class="fil37" d="M5231 11156c-197,0 -394,-43 -545,-130l-2682 -1549c-215,-125 -277,-304 -185,-460 4,3 9,7 13,10 -78,151 -14,323 194,442l2663 1539c150,87 346,130 542,130 196,0 391,-43 540,-130l5533 -3191c207,-120 269,-292 188,-444l19 -11c92,155 32,335 -181,459l-5557 3205c-150,87 -346,130 -542,130z"/>
  <path class="fil38" d="M5231 11138c-196,0 -392,-43 -542,-130l-2663 -1539c-208,-119 -272,-291 -194,-442 5,3 10,6 15,10 -66,147 1,310 200,425l2645 1528c150,86 345,130 540,130 195,0 390,-44 538,-130l5508 -3177c200,-116 265,-281 194,-429l20 -11c81,152 19,324 -188,444l-5533 3191c-149,87 -344,130 -540,130z"/>
  <path class="fil39" d="M5232 11120c-195,0 -390,-44 -540,-130l-2645 -1528c-199,-115 -266,-278 -200,-425 5,3 11,6 16,10 -55,142 14,297 206,408l2626 1517c149,86 343,129 538,129 194,0 388,-43 535,-128l5485 -3164c193,-112 259,-270 199,-413l20 -12c71,148 6,313 -194,429l-5508 3177c-148,86 -343,130 -538,130z"/>
  <path class="fil40" d="M5233 11101c-195,0 -389,-43 -538,-129l-2626 -1517c-192,-111 -261,-266 -206,-408 5,3 11,6 17,10 -44,137 26,285 210,391l2608 1506c148,86 342,129 536,129 193,0 386,-43 533,-128l5460 -3150c186,-108 254,-258 204,-397l21 -12c60,143 -6,301 -199,413l-5485 3164c-147,85 -341,128 -535,128z"/>
  <path class="fil41" d="M5234 11083c-194,0 -388,-43 -536,-129l-2608 -1506c-184,-106 -254,-254 -210,-391 0,0 1,0 1,1l16 9c-33,132 38,272 214,374l2590 1496c148,85 341,128 533,128 193,0 385,-43 531,-128l5436 -3135c179,-104 248,-247 208,-382l22 -12c50,139 -18,289 -204,397l-5460 3150c-147,85 -340,128 -533,128z"/>
  <path class="fil42" d="M5234 11065c-192,0 -385,-43 -533,-128l-2590 -1496c-176,-102 -247,-242 -214,-374l19 11c-24,127 48,259 217,356l2571 1485c147,85 339,127 531,127 192,0 383,-42 529,-127l5412 -3121c171,-100 241,-235 211,-365l22 -13c40,135 -29,278 -208,382l-5436 3135c-146,85 -338,128 -531,128z"/>
  <path class="fil43" d="M5235 11046c-192,0 -384,-42 -531,-127l-2571 -1485c-169,-97 -241,-229 -217,-356l20 11c-15,121 58,245 218,338l2553 1474c146,85 338,127 529,127 191,0 381,-42 527,-127l5387 -3107c163,-95 234,-223 213,-347l24 -14c30,130 -40,265 -211,365l-5412 3121c-146,85 -337,127 -529,127z"/>
  <path class="fil44" d="M5236 11028c-191,0 -383,-42 -529,-127l-2553 -1474c-160,-93 -233,-217 -218,-338l21 12c-6,115 67,231 219,319l2534 1463c146,84 336,126 527,126 190,0 379,-42 524,-126l5363 -3093c156,-90 227,-211 215,-329l24 -14c21,124 -50,252 -213,347l-5387 3107c-146,85 -336,127 -527,127z"/>
  <path class="fil45" d="M5237 11009c-191,0 -381,-42 -527,-126l-2534 -1463c-152,-88 -225,-204 -219,-319l22 13c2,108 75,216 218,298l2516 1453c145,84 335,126 524,126 190,0 379,-42 523,-125l5339 -3080c147,-85 219,-198 215,-311l25 -14c12,118 -59,239 -215,329l-5363 3093c-145,84 -334,126 -524,126z"/>
  <path class="fil46" d="M5237 10991c-189,0 -379,-42 -524,-126l-2516 -1453c-143,-82 -216,-190 -218,-298l23 13c11,102 83,201 217,278l2497 1443c144,83 333,125 522,125 189,0 377,-42 520,-125l5315 -3066c139,-80 210,-185 214,-291l27 -16c4,113 -68,226 -215,311l-5339 3080c-144,83 -333,125 -523,125z"/>
  <path class="fil47" d="M5238 10973c-189,0 -378,-42 -522,-125l-2497 -1443c-134,-77 -206,-176 -217,-278l2643 1527c160,93 370,139 580,139 209,0 418,-46 577,-139l3928 -2265 15 9 0 0c-4,-3 -8,-7 -11,-11l803 -464 15 9 0 0c-5,-3 -8,-6 -12,-11l747 -430c-4,106 -75,211 -214,291l-5315 3066c-143,83 -331,125 -520,125z"/>
  <path class="fil48" d="M5225 10793c-210,0 -420,-46 -580,-139l-2643 -1527 -23 -13 -22 -13 -21 -12 -20 -11 -19 -11 -16 -9c0,-1 -1,-1 -1,-1 -6,-4 -12,-7 -17,-10 -5,-4 -11,-7 -16,-10 -5,-4 -10,-7 -15,-10 -4,-3 -9,-7 -13,-10 -5,-3 -9,-6 -13,-10 -4,-3 -8,-6 -12,-9 -4,-3 -8,-6 -12,-9 -3,-3 -6,-6 -10,-9 -3,-3 -6,-6 -9,-9 -3,-3 -6,-5 -9,-8 -3,-3 -5,-6 -8,-8 -3,-3 -5,-5 -7,-8 -3,-2 -5,-5 -7,-7 -2,-3 -4,-5 -6,-7 -2,-2 -4,-5 -6,-7 -2,-2 -3,-4 -5,-6 -2,-2 -3,-4 -5,-6 -1,-2 -2,-4 -4,-6 -1,-1 -2,-3 -4,-5 -1,-2 -2,-4 -4,-6 -1,-1 -2,-3 -3,-5 -2,-2 -3,-4 -4,-6 -1,-2 -3,-4 -4,-6 -1,-1 -2,-3 -3,-5 -1,-2 -2,-4 -3,-6 -2,-2 -3,-4 -4,-6 -1,-2 -2,-4 -3,-6 -1,-2 -2,-4 -3,-6 -1,-2 -2,-4 -3,-6 -1,-2 -2,-4 -3,-6 -1,-2 -1,-4 -2,-6 -1,-3 -2,-5 -3,-7 -1,-2 -2,-4 -2,-6 -1,-2 -2,-4 -3,-7 0,-2 -1,-4 -2,-6 0,-2 -1,-5 -2,-7 0,-2 -1,-4 -2,-7 0,-2 -1,-4 -1,-6 -1,-3 -1,-5 -2,-7 0,-2 -1,-5 -1,-7 -1,-2 -1,-5 -2,-7 0,-3 0,-5 -1,-7 0,-3 0,-5 -1,-8 0,-2 0,-4 0,-7 0,-2 -1,-5 -1,-7 0,-6 0,-11 0,-17l1 -285c0,22 3,45 9,67l-2 3c0,0 2,12 10,35 8,22 22,56 50,93 28,37 69,78 124,117 56,38 123,73 197,117 295,171 717,416 1223,709 253,147 528,306 818,474 145,84 294,170 446,258 76,43 151,93 237,127 85,34 175,56 266,70 69,11 140,16 210,16 117,0 235,-14 350,-45 189,-48 345,-165 513,-256 333,-191 671,-385 1009,-580 1351,-781 2162,-1252 3175,-1838 507,-293 929,-538 1224,-709 73,-43 142,-78 196,-119 54,-40 93,-84 117,-123 26,-40 36,-74 42,-97 4,-20 6,-31 5,-35 3,-15 4,-30 4,-45l0 0 -1 273 0 13 0 3c0,3 0,7 -1,11 0,4 0,8 0,13 -1,4 -1,8 -2,12 0,4 -1,9 -2,13 -1,4 -1,8 -2,12 -1,4 -2,8 -3,12 -1,4 -2,7 -4,11 -1,4 -2,8 -3,12 -2,3 -3,7 -5,11 -1,3 -3,7 -4,11 -2,3 -3,7 -5,10 -2,4 -4,7 -5,11 -2,3 -4,7 -6,10 -2,3 -4,7 -6,10 -2,3 -4,7 -6,10 -3,3 -5,6 -7,10 -2,3 -5,6 -7,9 -2,3 -5,6 -7,9 -3,3 -5,7 -8,10 -2,3 -5,6 -8,9 -2,3 -5,6 -8,8 -2,3 -5,6 -8,9 -3,3 -6,6 -9,9 -3,3 -5,5 -8,8 -4,3 -7,6 -10,9 -3,2 -6,5 -10,8 -3,3 -7,6 -10,9 -4,3 -8,6 -12,9 -4,3 -8,6 -12,9 -4,3 -8,6 -13,9 -4,3 -9,6 -13,9 -5,3 -10,6 -14,9 -5,3 -10,6 -15,9 -2,1 -3,2 -5,3l-11 6 -16 9 -16 10 -17 10 -18 10 -18 10 -18 11 -19 11 -20 11 -20 12 -21 12 -22 12 -22 13 -24 14 -24 14 -25 14 -27 16 -747 430c-6,-8 -9,-21 -9,-36l0 -23c0,-13 2,-27 7,-40 5,-17 14,-32 24,-46 11,-16 25,-30 41,-38l528 -305c12,-7 23,-10 32,-10 7,0 13,1 19,4l-52 -30c-6,-3 -12,-4 -19,-4 -10,0 -21,3 -32,9l-529 306c-15,8 -29,22 -40,38 -11,14 -19,29 -24,46 -5,13 -8,27 -8,40l0 23c0,23 8,39 22,47l37 21 -803 464c-7,-9 -10,-21 -10,-36l0 -23c0,-13 3,-27 7,-41 6,-16 14,-32 24,-46 12,-16 26,-29 41,-38l529 -305c11,-6 22,-10 32,-10 7,0 13,2 18,5l-52 -30c-5,-3 -12,-5 -19,-5 -9,0 -20,4 -32,10l-528 305c-15,9 -30,22 -41,38 -10,14 -19,30 -24,46 -5,14 -7,28 -7,41l0 23c0,23 8,39 21,47l37 21 -3928 2265c-159,93 -368,139 -577,139z"/>
  <path class="fil0" d="M1962 8786l2668 1535c217,123 470,171 717,135 140,-20 255,-48 281,-63l6031 -3482c120,-70 270,-237 87,-444l-2822 -1652c-215,-129 -529,-209 -778,-178 -110,14 -248,42 -311,78l-6003 3452c-259,150 -129,470 130,619z"/>
  <path class="fil49" d="M4701 10276l-2829 -1634c-173,-101 -173,-351 0,-451l5878 -3392c321,-186 718,-186 1040,0l438 253c9,5 16,13 21,21l206 367c7,13 18,23 30,30l862 498c9,5 19,9 29,10l548 64c14,2 28,6 40,13l713 412c151,87 151,305 0,392l-5921 3417c-326,188 -728,188 -1055,0zm-2818 -1507l2763 1596c321,185 839,185 1158,0l5822 -3358c319,-185 317,-485 -3,-670l-2764 -1597c-321,-185 -839,-185 -1157,0l-5823 3358c-319,186 -317,486 4,671z"/>
  <path class="fil50" d="M9743 5369l576 332c32,18 35,46 8,62 -28,16 -76,14 -108,-5l-575 -332c-32,-18 -36,-46 -8,-62 27,-16 75,-14 107,5z"/>
  <path class="fil49" d="M10486 7792c5,-17 13,-32 24,-46 11,-16 25,-30 40,-38l529 -306c20,-11 38,-12 51,-5l52 30c-13,-7 -31,-6 -51,6l-528 305c-16,8 -30,22 -41,38 -10,14 -19,29 -24,46 -5,13 -7,27 -7,40l0 23c0,23 8,40 21,47l-52 -30c-14,-8 -22,-24 -22,-47l0 -23c0,-13 3,-27 8,-40z"/>
  <path class="fil51" d="M10603 7738l528 -305c40,-23 72,-5 72,42l0 23c0,45 -32,101 -72,124l-529 305c-39,23 -71,4 -71,-42l0 -23c0,-46 32,-102 72,-124z"/>
  <path class="fil49" d="M9679 8257c5,-16 14,-32 24,-46 11,-16 26,-29 41,-38l528 -305c20,-11 38,-12 51,-5l52 30c-13,-7 -30,-6 -50,5l-529 305c-15,9 -29,22 -41,38 -10,14 -18,30 -24,46 -4,14 -7,28 -7,41l0 23c0,23 8,39 21,47l-52 -30c-13,-8 -21,-24 -21,-47l0 -23c0,-13 2,-27 7,-41z"/>
  <path class="fil51" d="M9796 8203l529 -305c40,-23 72,-4 72,42l0 23c0,46 -32,102 -72,125l-529 305c-40,23 -72,4 -72,-42l0 -23c0,-46 32,-102 72,-125z"/>
  <path class="fil50" d="M10428 5903c39,22 102,22 141,0 38,-23 38,-59 -1,-82 -39,-22 -102,-22 -141,0 -38,23 -38,59 1,82z"/>
  <path class="fil52" d="M5229 10521c-70,0 -141,-5 -210,-16 -91,-14 -181,-36 -266,-70 -86,-34 -161,-84 -237,-127 -152,-88 -301,-174 -446,-258 -290,-168 -565,-327 -818,-474 -506,-293 -928,-538 -1223,-709 -74,-44 -141,-79 -197,-117 -55,-39 -96,-80 -124,-117 -28,-37 -42,-71 -50,-93 -8,-23 -10,-35 -10,-35l2 -3c25,97 103,192 233,267l2763 1596c161,93 370,139 580,139 209,0 418,-46 578,-139l5822 -3358c139,-81 217,-183 234,-288 1,4 -1,15 -5,35 -6,23 -16,57 -42,97 -24,39 -63,83 -117,123 -54,41 -123,76 -196,119 -295,171 -717,416 -1224,709 -1013,586 -1824,1057 -3175,1838 -338,195 -676,389 -1009,580 -168,91 -324,208 -513,256 -115,31 -233,45 -350,45z"/>
  <path class="fil53" d="M5226 10504c-210,0 -419,-46 -580,-139l-2763 -1596c-130,-75 -208,-170 -233,-267l0 0 3 2c0,0 11,49 67,119 29,35 69,74 124,109 56,34 123,71 197,114 295,170 718,414 1225,706 254,146 528,304 819,471 145,84 295,169 447,257 77,44 152,92 234,124 82,32 169,54 258,68 66,9 133,14 201,14 115,0 231,-14 344,-45 179,-45 336,-162 504,-253 333,-192 670,-388 1008,-583 1353,-778 2167,-1245 3181,-1828 507,-291 930,-534 1226,-704 74,-44 142,-79 195,-116 53,-38 92,-78 118,-115 26,-36 41,-68 49,-90 7,-22 9,-34 9,-34 1,0 1,0 1,1 -17,105 -95,207 -234,288l-5822 3358c-160,93 -369,139 -578,139z"/>
  <path class="fil54" d="M1762 8184l-274 -158 454 -262 259 149 -322 185c-46,27 -85,56 -117,86zm9956 -1781c-28,-24 -60,-46 -95,-66l-350 -202 179 -103 454 262 -188 109z"/>
  <path class="fil54" d="M5197 10168l-3369 -1945c13,-12 28,-22 44,-32l406 -234 514 297 2405 1389 5991 -3459 454 263 -6445 3721z"/>
  <path class="fil55" d="M1828 8223l-66 -39c32,-30 71,-59 117,-86l322 -185 77 44 -406 234c-16,10 -31,20 -44,32zm9814 -1776l-454 -263 85 -49 350 202c35,20 67,42 95,66l-76 44z"/>
  <polygon class="fil54" points="11452,6032 8197,4152 4968,6017 4735,5626 5908,4949 6303,5177 8592,3856 11906,5769 "/>
  <path class="fil56" d="M5101 6240l-133 -223 3229 -1865 3255 1880 -179 103 -2414 -1395c-160,-92 -370,-139 -580,-139 -209,0 -418,47 -577,139l-2601 1500z"/>
  <path class="fil56" d="M5197 9643l-2405 -1389 3511 0 -1163 -1949 2610 -1506c160,-93 340,-139 520,-139 179,0 359,46 520,139l438 253c9,5 16,13 21,21l206 367c7,13 18,23 30,30l862 498c9,5 19,9 29,10l548 64c14,2 28,6 40,13l224 129 -5991 3459z"/>
  <path class="fil57" d="M5140 6305l-39 -65 2601 -1500c159,-92 368,-139 577,-139 210,0 420,47 580,139l2414 1395 -85 49 -224 -129c-12,-7 -26,-11 -40,-13l-548 -64c-10,-1 -20,-5 -29,-10l-862 -498c-12,-7 -23,-17 -30,-30l-206 -367c-5,-8 -12,-16 -21,-21l-438 -253c-161,-93 -341,-139 -520,-139 -180,0 -360,46 -520,139l-2610 1506zm5358 -500c-26,0 -51,5 -71,16 -38,23 -38,59 1,82 19,11 45,17 70,17 26,0 51,-6 71,-17 38,-23 38,-59 -1,-82 -19,-11 -45,-16 -70,-16zm-816 -452c-17,0 -34,4 -46,11 -28,16 -24,44 8,62l575 332c18,11 40,16 61,16 17,0 34,-4 47,-11 27,-16 24,-44 -8,-62l-576 -332c-17,-11 -40,-16 -61,-16z"/>
  <path class="fil58" d="M10280 5774c-21,0 -43,-5 -61,-16l-575 -332c-32,-18 -36,-46 -8,-62 12,-7 29,-11 46,-11 21,0 44,5 61,16l576 332c32,18 35,46 8,62 -13,7 -30,11 -47,11z"/>
  <path class="fil58" d="M10498 5920c-25,0 -51,-6 -70,-17 -39,-23 -39,-59 -1,-82 20,-11 45,-16 71,-16 25,0 51,5 70,16 39,23 39,59 1,82 -20,11 -45,17 -71,17zm-3 -101c-18,0 -35,4 -49,11 -29,16 -30,43 -2,60 15,10 35,14 55,14 18,0 35,-3 49,-11 29,-16 30,-43 2,-60 -15,-9 -35,-14 -55,-14z"/>
  <path class="fil59" d="M10499 5904c-20,0 -40,-4 -55,-14 -28,-17 -27,-44 2,-60 14,-7 31,-11 49,-11 20,0 40,5 55,14 28,17 27,44 -2,60 -14,8 -31,11 -49,11zm-1 -67c-10,0 -20,2 -27,6 -16,8 -16,23 -1,32 8,5 19,8 30,8 9,0 19,-2 26,-6 16,-9 17,-23 1,-33 -8,-5 -19,-7 -29,-7z"/>
  <path class="fil60" d="M10500 5883c-11,0 -22,-3 -30,-8 -15,-9 -15,-24 1,-32 7,-4 17,-6 27,-6 10,0 21,2 29,7 16,10 15,24 -1,33 -7,4 -17,6 -26,6zm-2 -32c-3,0 -7,1 -10,2 -5,4 -6,9 0,13 3,1 7,2 11,2 4,0 7,0 10,-2 6,-3 6,-9 0,-12 -3,-2 -7,-3 -11,-3z"/>
  <path class="fil61" d="M10499 5868c-4,0 -8,-1 -11,-2 -6,-4 -5,-9 0,-13 3,-1 7,-2 10,-2 4,0 8,1 11,3 6,3 6,9 0,12 -3,2 -6,2 -10,2z"/>
  <path class="fil62" d="M1942 7764l-454 -263 454 263 0 0zm-454 -263l3247 -1875 -3247 1875z"/>
  <polygon class="fil63" points="2201,7913 1942,7764 1942,7764 "/>
  <polygon class="fil63" points="1942,7764 1488,7501 4735,5626 4968,6017 "/>
  <polygon class="fil64" points="2201,7913 1942,7764 4968,6017 5101,6240 "/>
  <polygon class="fil64" points="6303,8254 2792,8254 2278,7957 5140,6305 "/>
  <polygon class="fil65" points="2278,7957 2201,7913 5101,6240 5140,6305 "/>
  <polygon class="fil66" points="6303,8254 3669,6733 3669,3917 6303,5438 "/>
  <polygon class="fil67" points="8937,6733 6303,8254 6303,5438 8937,3917 "/>
  <polygon class="fil68" points="6303,5177 3511,3565 6303,1953 9095,3565 "/>
  <polygon class="fil69" points="6303,5776 3511,4164 3511,3565 6303,5177 "/>
  <polygon class="fil70" points="9095,4164 6303,5776 6303,5177 9095,3565 "/>
  <polygon class="fil71" points="7573,2981 5379,4248 5117,4097 7311,2830 "/>
  <path class="fil72" d="M7310 3133l0 0 263 -152 -263 152zm263 -152l-262 -151 0 0 262 151z"/>
  <polygon class="fil73" points="7310,3133 7311,2830 7311,2830 7573,2981 "/>
  <polygon class="fil70" points="7470,3040 5442,4211 5442,2161 7470,990 "/>
  <path class="fil74" d="M7234 1919c0,8 -7,18 -15,23l-293 169c-8,5 -14,2 -14,-7l0 -292c0,-8 6,-18 14,-23l293 -169c8,-5 15,-2 15,6l0 293zm12 -341l-347 200c-8,4 -14,15 -14,22l0 347c0,8 6,11 14,6l347 -200c8,-5 14,-15 14,-23l0 -346c0,-8 -6,-11 -14,-6z"/>
  <path class="fil74" d="M7234 2617c0,8 -7,18 -15,23l-293 169c-8,5 -14,2 -14,-6l0 -293c0,-8 6,-18 14,-23l293 -169c8,-5 15,-2 15,6l0 293zm12 -341l-347 200c-8,4 -14,15 -14,23l0 346c0,8 6,11 14,6l347 -200c8,-4 14,-15 14,-22l0 -347c0,-8 -6,-11 -14,-6z"/>
  <path class="fil74" d="M6912 3365l0 -157c0,-8 6,-18 14,-23l293 -169c8,-5 15,-2 15,7l0 156 26 -15 0 -184c0,-8 -6,-11 -14,-6l-347 200c-8,5 -14,15 -14,23l0 183 27 -15z"/>
  <polygon class="fil74" points="6140,2383 6300,2291 6300,2329 6140,2421 "/>
  <polygon class="fil74" points="6155,2564 6155,2526 6030,2598 5948,2646 5948,2684 6030,2636 "/>
  <polygon class="fil74" points="5890,2680 5684,2798 5684,2836 5890,2718 "/>
  <polygon class="fil74" points="5995,2505 6081,2455 6081,2417 5933,2503 5686,2646 5686,2684 "/>
  <polygon class="fil74" points="5753,2494 5954,2377 5954,2339 5753,2455 5687,2493 5687,2531 5753,2493 "/>
  <polygon class="fil74" points="6155,2261 6220,2223 6220,2185 6135,2235 6013,2305 6013,2343 6155,2261 "/>
  <polygon class="fil74" points="6683,1918 6593,1970 6593,2008 6683,1956 "/>
  <polygon class="fil74" points="6534,2004 6457,2049 6457,2087 6534,2042 "/>
  <polygon class="fil74" points="6684,2069 6537,2154 6537,2192 6684,2107 "/>
  <polygon class="fil74" points="6463,2348 6400,2385 6400,2423 6463,2386 "/>
  <polygon class="fil74" points="6522,2314 6522,2353 6685,2258 6685,2220 "/>
  <polygon class="fil74" points="5989,3316 5685,3492 5685,3530 5989,3355 "/>
  <polygon class="fil74" points="6302,2833 6081,2960 5934,3045 5934,3083 6081,2998 6302,2871 "/>
  <polygon class="fil74" points="5867,3235 5685,3340 5685,3378 5867,3273 6069,3157 6069,3119 5867,3235 "/>
  <polygon class="fil74" points="6128,3085 6128,3123 6234,3062 6234,3023 "/>
  <polygon class="fil74" points="6048,3321 6240,3210 6240,3172 6048,3283 "/>
  <polygon class="fil74" points="5685,3227 5876,3117 5876,3079 5685,3189 "/>
  <polygon class="fil74" points="6685,2915 6422,3066 6422,3105 6685,2953 "/>
  <polygon class="fil74" points="6478,2920 6684,2801 6684,2763 6478,2882 "/>
  <polygon class="fil74" points="6535,2736 6685,2650 6685,2611 6535,2698 "/>
  <polygon class="fil74" points="6241,3721 6049,3832 6049,3863 6241,3752 "/>
  <polygon class="fil74" points="5688,3927 5768,3881 6004,3744 6004,3706 5787,3831 5688,3889 "/>
  <polygon class="fil74" points="5990,3897 5990,3866 5758,4000 5687,4041 5687,4072 "/>
  <polygon class="fil74" points="6270,3552 6200,3593 6184,3602 6063,3672 6063,3710 6184,3640 6200,3631 6270,3591 "/>
  <polygon class="fil74" points="6407,3511 6485,3467 6485,3429 6407,3473 "/>
  <polygon class="fil74" points="6543,3433 6682,3353 6682,3315 6543,3395 "/>
  <polygon class="fil74" points="6683,3497 6683,3466 6501,3571 6501,3602 "/>
  <polygon class="fil74" points="6442,3605 6369,3647 6369,3678 6442,3636 "/>
  <path class="fil75" d="M7330 2046c-50,98 -96,196 -143,294 -37,81 -75,163 -112,244 -59,-53 -119,-105 -184,-153 -4,-3 -13,0 -19,7 -8,9 -10,19 -6,24 59,72 122,138 187,202l9 3c13,1 30,-13 38,-30 46,-99 88,-197 132,-295 43,-99 85,-197 124,-295 3,-8 1,-16 -5,-17 -7,-1 -16,7 -21,16z"/>
  <polygon class="fil68" points="6659,6398 6659,7163 6698,7140 6698,6415 8685,5336 8685,6056 6698,7101 6698,7140 8724,6072 8724,5275 "/>
  <g style="clip-path:url(#id0)">
  </g>
  <g style="clip-path:url(#id1)">
   <image x="3620" y="4887" width="2549" height="2549" xlink:href="logo_Images\logo_ImgID1.png"/>
  </g>
  <g style="clip-path:url(#id2)">
  </g>
  <path class="fil76" d="M6826 6544c2,54 3,108 5,161 1,53 3,106 4,159 1,7 5,9 8,7 8,-4 15,-8 23,-12 4,-3 7,-11 7,-16 -1,-18 -1,-37 -2,-56 0,-19 -1,-38 -1,-57 1,-3 1,-5 2,-7 9,16 17,33 26,49 8,17 17,33 25,50 1,2 4,3 6,2 9,-5 18,-10 27,-15 4,-2 7,-10 7,-16 0,-2 -1,-4 -1,-5 -11,-21 -23,-43 -34,-65 -11,-22 -22,-44 -33,-66 9,-30 20,-59 30,-88 9,-30 20,-59 30,-89 2,-7 1,-14 -3,-16 -1,0 -3,0 -4,0 -9,6 -19,11 -28,16 -2,1 -5,5 -6,8 -8,24 -16,47 -24,70 -7,23 -15,46 -23,69 -1,-35 -2,-69 -3,-104 0,-8 -4,-10 -8,-8 -7,4 -15,8 -23,13 -4,2 -7,10 -7,16zm160 -88c1,54 2,108 3,162 1,53 2,107 3,159 1,7 5,9 8,8 8,-4 15,-9 23,-13 4,-2 7,-10 7,-15 0,-22 -1,-43 -1,-65 -1,-22 -1,-43 -1,-65 8,-5 17,-10 26,-15 18,-10 34,-28 46,-53 12,-26 17,-54 17,-84 -1,-29 -7,-52 -19,-64 -12,-12 -29,-13 -47,-3 -20,11 -39,21 -58,32 -4,2 -7,11 -7,16zm39 27c9,-5 18,-10 27,-14 18,-11 27,-5 27,27 0,32 -7,46 -26,57 -9,5 -18,10 -27,14 0,-27 -1,-56 -1,-84zm121 -115c0,40 1,79 1,118 1,39 1,78 2,116 0,29 6,51 18,63 12,12 28,12 46,2 18,-10 34,-28 46,-53 12,-25 17,-52 17,-82 0,-39 0,-78 0,-117 0,-39 -1,-78 -1,-118 0,-7 -4,-10 -7,-8 -8,4 -16,9 -23,13 -5,2 -8,11 -8,16 1,39 1,79 1,118 0,39 1,78 1,117 0,29 -6,44 -27,56 -20,11 -26,2 -26,-27 0,-39 -1,-78 -1,-117 -1,-39 -1,-78 -1,-118 0,-7 -5,-9 -8,-8 -7,5 -15,9 -23,13 -4,2 -7,11 -7,16zm249 -137c0,55 0,110 0,164 0,54 -1,108 -1,161 0,7 4,9 8,7 7,-4 15,-8 22,-12 4,-2 8,-11 8,-16 0,-21 0,-43 0,-65 0,-22 0,-44 0,-66 9,-5 17,-9 26,-14 19,-10 35,-28 47,-54 12,-25 18,-54 18,-84 1,-30 -5,-52 -17,-65 -12,-13 -28,-13 -47,-3 -19,10 -38,21 -56,31 -5,3 -8,11 -8,16zm38 28c8,-5 17,-9 26,-14 19,-11 27,-5 27,28 -1,32 -8,46 -28,57 -8,5 -17,10 -26,14 0,-28 1,-56 1,-85zm185 -162c-18,10 -34,28 -46,54 -12,26 -19,55 -19,84 -1,25 -1,49 -1,73 0,24 0,49 -1,73 0,29 6,51 17,63 12,12 27,13 46,3 18,-10 34,-28 46,-53 12,-26 18,-54 19,-83 0,-24 0,-49 1,-73 0,-24 1,-49 1,-73 1,-30 -5,-52 -17,-65 -11,-13 -27,-14 -46,-3zm0 61c19,-11 26,-3 26,28 -1,24 -1,48 -2,73 0,24 0,48 -1,72 0,29 -7,45 -27,56 -20,12 -26,2 -25,-27 0,-24 0,-48 1,-72 0,-25 0,-49 0,-73 1,-30 7,-46 28,-57zm95 -101c-1,55 -2,110 -3,165 -2,54 -3,108 -4,162 0,7 4,9 8,7 36,-20 72,-39 108,-59 4,-3 8,-11 8,-16 0,-12 0,-24 1,-36 0,-7 -4,-10 -7,-8 -27,15 -53,29 -79,44 0,-46 1,-93 2,-139 1,-47 2,-94 3,-141 0,-7 -4,-10 -7,-8 -8,4 -15,9 -23,13 -4,2 -7,11 -7,16zm155 -85c-1,55 -3,110 -4,165 -2,54 -3,109 -5,163 0,7 4,9 7,7 8,-4 15,-8 23,-12 4,-2 7,-11 8,-16 1,-54 3,-108 4,-163 2,-54 3,-110 5,-165 0,-8 -4,-10 -7,-8 -8,4 -16,8 -23,12 -5,3 -8,11 -8,17zm68 -38c-2,56 -4,111 -5,166 -2,55 -3,109 -5,163 0,7 4,9 7,8 7,-5 15,-9 22,-13 5,-2 8,-11 8,-16 1,-31 2,-62 3,-93 1,-32 2,-64 3,-95 8,27 16,55 23,82 8,28 16,55 24,82 1,4 3,5 6,4 7,-5 15,-9 22,-13 5,-2 8,-11 8,-16 2,-54 4,-108 6,-163 2,-55 4,-110 6,-166 0,-7 -4,-10 -7,-8 -8,4 -15,8 -23,12 -4,3 -8,11 -8,17 -1,32 -2,64 -3,96 -1,32 -2,64 -3,96 -8,-28 -16,-56 -24,-84 -7,-28 -16,-56 -23,-84 -1,-4 -4,-5 -7,-3 -7,4 -15,8 -23,12 -4,3 -7,11 -7,16zm158 -86c-2,55 -5,111 -7,166 -2,55 -4,109 -6,163 0,7 4,10 7,8 19,-10 37,-20 56,-31 18,-10 34,-27 46,-53 13,-25 20,-54 21,-84 1,-24 2,-48 3,-73 1,-24 2,-49 3,-73 2,-31 -3,-54 -14,-67 -11,-13 -26,-14 -45,-4 -19,11 -38,21 -56,31 -5,3 -8,11 -8,17zm35 28c9,-4 18,-9 27,-14 20,-11 26,-4 24,29 -1,25 -2,49 -3,74 -1,24 -2,48 -3,73 -1,29 -8,45 -29,57 -8,4 -16,9 -25,14 2,-39 3,-77 5,-116 1,-38 3,-77 4,-117zm205 22c21,-26 38,-68 40,-113 1,-31 -3,-54 -14,-67 -11,-13 -26,-14 -45,-4 -18,10 -37,21 -56,31 -4,2 -8,10 -8,16 -2,56 -5,112 -7,167 -3,55 -5,110 -8,164 0,7 4,9 7,8 7,-4 15,-9 22,-13 5,-2 8,-10 8,-15 1,-23 2,-45 3,-67 1,-22 2,-45 3,-67 7,-3 13,-7 19,-10 5,20 9,40 14,60 4,19 9,39 13,59 1,4 4,5 7,4 7,-4 14,-8 22,-13 4,-2 7,-9 8,-15 0,-2 0,-3 -1,-4 -4,-20 -9,-40 -13,-60 -5,-20 -9,-41 -14,-61zm-48 -108c9,-5 18,-9 26,-14 19,-10 27,-4 25,29 -1,28 -10,47 -28,57 -9,5 -18,10 -27,15 2,-29 3,-58 4,-87zm175 -147c-12,61 -24,122 -35,182 -12,60 -23,119 -34,178 -1,1 -1,2 -1,3 0,6 2,10 6,9 0,0 1,-1 1,-1 7,-4 15,-8 22,-12 4,-2 7,-8 7,-13 5,-23 9,-46 14,-69 15,-8 30,-17 46,-25 2,19 4,39 6,58 1,5 4,7 6,5 8,-4 15,-8 23,-12 4,-2 8,-9 8,-16 0,-1 0,-2 0,-3 -6,-50 -11,-100 -16,-150 -6,-51 -11,-103 -17,-154 0,-5 -3,-7 -6,-6 -8,5 -15,9 -23,13 -3,2 -6,8 -7,13zm11 115c3,27 6,54 9,81 -9,5 -19,10 -27,15 6,-32 12,-64 18,-96z"/>
 </g>
</svg>
